<?xml version="1.0" encoding="UTF-8" standalone="no"?>
<!DOCTYPE svg PUBLIC "-//W3C//DTD SVG 1.1//EN" "http://www.w3.org/Graphics/SVG/1.1/DTD/svg11.dtd">
<svg width="100%" height="100%" viewBox="0 0 112 22" version="1.1" xmlns="http://www.w3.org/2000/svg" xmlns:xlink="http://www.w3.org/1999/xlink" xml:space="preserve" xmlns:serif="http://www.serif.com/" style="fill-rule:evenodd;clip-rule:evenodd;stroke-linejoin:round;stroke-miterlimit:2;">
    <path d="M31.756,4.355L31.756,14.441C31.756,16.559 32.815,17.769 34.858,17.769C36.902,17.769 37.96,16.559 37.96,14.441L37.96,4.355L35.995,4.355L35.995,14.573C35.995,15.519 35.578,15.86 34.915,15.86C34.252,15.86 33.835,15.519 33.835,14.573L33.835,4.355L31.756,4.355ZM50.583,12.111L51.53,12.111L51.53,14.553C51.53,15.5 51.113,15.841 50.45,15.841C49.787,15.841 49.37,15.5 49.37,14.553L49.37,7.4C49.37,6.453 49.787,6.094 50.45,6.094C51.113,6.094 51.53,6.453 51.53,7.4L51.53,8.82L53.496,8.82L53.496,7.532C53.496,5.413 52.437,4.204 50.393,4.204C48.35,4.204 47.291,5.413 47.291,7.532L47.291,14.421C47.291,16.54 48.35,17.75 50.393,17.75C52.437,17.75 53.496,16.54 53.496,14.421L53.496,10.221L50.583,10.221L50.583,12.111ZM26.439,17.598C26.78,17.636 27.064,17.636 27.442,17.636C29.012,17.636 30.429,16.956 30.429,14.308L30.429,4.355L28.35,4.355L28.35,14.46C28.35,15.481 27.821,15.727 27.158,15.727C26.931,15.727 26.666,15.727 26.439,15.708L26.439,17.598ZM71.966,17.598L74.045,17.598L74.045,4.355L71.966,4.355L71.966,17.598ZM67.802,4.355L64.738,4.355L64.738,17.598L66.817,17.598L66.817,12.622L67.802,12.622C69.883,12.622 70.904,11.469 70.904,9.35L70.904,7.627C70.904,5.508 69.883,4.355 67.802,4.355ZM90.264,6.245L92.44,6.245L92.44,17.598L94.519,17.598L94.519,6.245L96.695,6.245L96.695,4.355L90.264,4.355L90.264,6.245ZM82.03,17.598C81.822,17.106 81.803,16.633 81.803,15.99L81.803,13.946C81.803,12.565 81.463,11.563 80.423,11.128C81.349,10.694 81.784,9.804 81.784,8.441L81.784,7.4C81.784,5.357 80.858,4.355 78.701,4.355L75.561,4.355L75.561,17.598L77.64,17.598L77.64,12.205L78.36,12.205C79.307,12.205 79.724,12.66 79.724,13.889L79.724,15.971C79.724,17.049 79.8,17.258 79.913,17.598L82.03,17.598ZM43.828,17.598L45.965,17.598L45.965,4.355L44.112,4.355L44.112,12.282L41.973,4.355L39.363,4.355L39.363,17.598L41.234,17.598L41.234,8.006L43.828,17.598ZM109.015,17.598L111.151,17.598L111.151,4.355L109.299,4.355L109.299,12.282L107.159,4.355L104.55,4.355L104.55,17.598L106.421,17.598L106.421,8.006L109.015,17.598ZM87.783,4.355L84.738,4.355L82.619,17.598L84.53,17.598L84.889,15.195L87.443,15.195L87.802,17.598L89.902,17.598L87.783,4.355ZM99.684,6.245L103.28,6.245L103.28,4.355L97.605,4.355L97.605,17.598L103.28,17.598L103.28,15.708L99.684,15.708L99.684,11.827L102.542,11.827L102.542,9.937L99.684,9.937L99.684,6.245ZM56.92,6.245L60.516,6.245L60.516,4.355L54.841,4.355L54.841,17.598L60.516,17.598L60.516,15.708L56.92,15.708L56.92,11.827L59.778,11.827L59.778,9.937L56.92,9.937L56.92,6.245ZM86.156,6.701L87.159,13.4L85.154,13.4L86.156,6.701ZM67.802,6.245C68.465,6.245 68.825,6.548 68.825,7.494L68.825,9.482C68.825,10.429 68.465,10.732 67.802,10.732L66.817,10.732L66.817,6.245L67.802,6.245ZM78.644,6.245C79.383,6.245 79.705,6.661 79.705,7.608L79.705,8.914C79.705,9.975 79.231,10.316 78.455,10.316L77.64,10.316L77.64,6.245L78.644,6.245Z" style="fill-rule:nonzero;"/>
    <g transform="matrix(0.121546,-0.0106066,0.0106066,0.121546,-15.3214,-53.6461)">
        <path d="M130.987,476.369L130.987,491.298C125.495,492.971 122.333,494.707 122.847,495.822C124.651,495.297 127.539,495.063 130.987,495.285L130.987,572.849C122.598,589.005 134.593,613.786 134.593,613.786C134.593,613.786 125.688,587.344 145.519,574.833C163.766,563.323 226.67,568.731 226.454,533.229C226.147,482.941 168.145,483.245 139.05,489.275L139.05,476.369L130.987,476.369ZM139.05,496.527C153.603,500.027 170.692,511.18 165.015,538.055C162.19,551.431 147.573,558.421 139.05,564.2L139.05,496.527ZM166.886,632.237C118.293,632.237 78.901,592.845 78.901,544.252C78.901,495.659 118.293,456.267 166.886,456.267C215.479,456.267 254.872,495.659 254.872,544.252C254.872,592.845 215.479,632.237 166.886,632.237Z" style="fill-rule:nonzero;"/>
    </g>
</svg>