<?xml version="1.0" encoding="utf-8"?>
<!-- Generator: Adobe Illustrator 16.0.0, SVG Export Plug-In . SVG Version: 6.00 Build 0)  -->
<!DOCTYPE svg PUBLIC "-//W3C//DTD SVG 1.1//EN" "http://www.w3.org/Graphics/SVG/1.1/DTD/svg11.dtd">
<svg version="1.1" id="Layer_1" xmlns="http://www.w3.org/2000/svg" xmlns:xlink="http://www.w3.org/1999/xlink" x="0px" y="0px"
	 width="841.89px" height="595.28px" viewBox="0 0 841.89 595.28" enable-background="new 0 0 841.89 595.28" xml:space="preserve">
<path fill="#FFFFFF" d="M408.847,505.708c118.945,0,215.381-97.111,215.381-216.91c0-119.784-96.436-216.901-215.381-216.901
	c-118.958,0-215.385,97.117-215.385,216.901C193.461,408.597,289.888,505.708,408.847,505.708"/>
<path fill="#F78C20" d="M358.339,361.35c-46.49,29.538-25.618,91.989-25.618,91.989s-28.115-58.521-8.443-96.677V173.479
	c-8.088-0.523-14.853,0.034-19.09,1.279c-1.208-2.642,6.195-6.744,19.09-10.699v-35.248h18.901v30.473
	c68.219-14.235,204.194-14.938,204.916,103.809C548.594,346.933,401.124,334.162,358.339,361.35 M408.791,71.896
	c-118.923,0-215.33,97.117-215.33,216.91c0,119.79,96.407,216.901,215.33,216.901s215.325-97.111,215.325-216.901
	C624.116,169.014,527.714,71.896,408.791,71.896"/>
<path fill="#F78C20" d="M343.18,176.402v159.832c19.978-13.652,54.244-30.157,60.874-61.748
	C417.362,211.028,377.287,184.673,343.18,176.402"/>
</svg>
